<svg xmlns="http://www.w3.org/2000/svg" viewBox="-0.5 -0.5 16 16" fill="currentColor" id="File-Doc-Light--Streamline-Phosphor.svg" height="16" width="16"><desc>File Doc Light Streamline Icon: https://streamlinehq.com</desc><path d="M1.83440625 9.490658203125H0.609380859375c-0.25369921874999996 0.00001171875 -0.45938085937499995 0.205681640625 -0.45938085937499995 0.45938671875000003v4.28757421875c0 0.2537109375 0.205669921875 0.45938085937499995 0.45938085937499995 0.45938085937499995h1.225025390625c2.00391796875 0 3.2563710937500003 -2.169310546875 2.254412109375 -3.9047578124999998 -0.46501171875 -0.805423828125 -1.3243886718750002 -1.301583984375 -2.254412109375 -1.301583984375Zm0 4.28757421875H1.0687675781250001v-3.3688066406250003h0.765638671875c1.29665625 0 2.107060546875 1.403671875 1.45873828125 2.526603515625 -0.30087890624999997 0.521138671875 -0.856986328125 0.8421796875 -1.45873828125 0.8422031249999999Zm12.87420703125 -0.418037109375c0.182994140625 0.175529296875 0.1891640625 0.46613085937500004 0.01378125 0.649259765625 -0.402099609375 0.43365234375 -0.9651796875 0.682365234375 -1.55654296875 0.6875449218749999 -1.26636328125 0 -2.296916015625 -1.16759765625 -2.296916015625 -2.60316796875s1.030552734375 -2.603173828125 2.296916015625 -2.603173828125c0.59159765625 0.005578125000000001 1.15470703125 0.254865234375 1.55654296875 0.68907421875 0.23739843749999998 0.262107421875 0.10202929687500001 0.6829160156249999 -0.243662109375 0.757453125 -0.151412109375 0.0326484375 -0.30908789062500003 -0.013212890625000001 -0.41937890625 -0.12196874999999999 -0.229546875 -0.2521171875 -0.5526093750000001 -0.398841796875 -0.893501953125 -0.40579101562500003 -0.76027734375 0 -1.3781484375 0.75568359375 -1.3781484375 1.6844062499999999s0.61787109375 1.684400390625 1.3781484375 1.684400390625c0.34066406250000003 -0.006556640625 0.663685546875 -0.152701171875 0.893501953125 -0.404255859375 0.175529296875 -0.182994140625 0.46612499999999996 -0.1891640625 0.649259765625 -0.01378125Zm-7.05535546875 -3.869537109375c-1.266369140625 0 -2.296916015625 1.16759765625 -2.296916015625 2.603173828125s1.030546875 2.60316796875 2.296916015625 2.60316796875 2.296916015625 -1.16759765625 2.296916015625 -2.60316796875 -1.030552734375 -2.603173828125 -2.296916015625 -2.603173828125Zm0 4.28757421875c-0.760283203125 0 -1.3781484375 -0.75568359375 -1.3781484375 -1.684400390625s0.617865234375 -1.6844062499999999 1.3781484375 -1.6844062499999999 1.3781484375 0.75568359375 1.3781484375 1.6844062499999999 -0.61787109375 1.684400390625 -1.3781484375 1.684400390625ZM1.5281484375 7.34687109375c0.25370507812500004 -0.00001171875 0.45938671875000003 -0.205681640625 0.45938671875000003 -0.45938085937499995V1.374890625c0 -0.084568359375 0.06855468749999999 -0.153123046875 0.153123046875 -0.153123046875H9.03140625v3.8281875000000003c0 0.2537109375 0.205669921875 0.45938671875000003 0.45938085937499995 0.45938671875000003h3.828193359375v1.3781484375c0.0003984375 0.353630859375 0.383466796875 0.57421875 0.689525390625 0.39706054687500003 0.14172070312499999 -0.082037109375 0.2290546875 -0.23330859375 0.2292421875 -0.39706054687500003V5.049955078125c-0.00010546875 -0.12179296874999998 -0.048580078124999995 -0.23855859375 -0.13475390625 -0.324626953125L9.815419921875 0.43775390625c-0.086068359375 -0.0861796875 -0.202833984375 -0.1346484375 -0.3246328125 -0.13475390625H2.140658203125c-0.5919902343750001 0 -1.071890625 0.479900390625 -1.071890625 1.071890625v5.512599609375c0 0.2537109375 0.205669921875 0.45938085937499995 0.45938085937499995 0.45938085937499995Zm8.422025390624999 -5.47584375 2.7195468750000003 2.7195468750000003h-2.7195468750000003Z" stroke-width="1"></path></svg>