<svg xmlns="http://www.w3.org/2000/svg" viewBox="-0.5 -0.5 16 16" fill="currentColor" id="File-Jpg-Light--Streamline-Phosphor.svg" height="16" width="16"><desc>File Jpg Light Streamline Icon: https://streamlinehq.com</desc><path d="M7.343619140625 9.53298046875h-1.2510644531250001c-0.25911328125 -0.00001171875 -0.4691484375 0.21003515625 -0.4691484375 0.4691484375v4.37872265625c0 0.3611484375 0.39095507812499997 0.5868691406250001 0.70372265625 0.406294921875 0.145154296875 -0.083806640625 0.23457421875 -0.2386875 0.23457421875 -0.406294921875v-0.781916015625h0.781916015625c1.564986328125 -0.0000703125 2.543115234375 -1.6942617187500002 1.76056640625 -3.049546875 -0.36315234375 -0.62893359375 -1.0343203125 -1.01637890625 -1.76056640625 -1.016408203125Zm0 3.127658203125h-0.781916015625v-2.189361328125h0.781916015625c0.84268359375 0.00003515625 1.3693710937499999 0.9122929687500001 0.9479941406249999 1.642060546875 -0.195544921875 0.33866015625 -0.556939453125 0.5472832031249999 -0.9479941406249999 0.54730078125Zm7.35 -0.15638671875000001v1.319091796875c-0.0000703125 0.12095507812499999 -0.0468515625 0.2372109375 -0.13058203125 0.324498046875 -0.4106484375 0.44286328125 -0.9856992187500001 0.696873046875 -1.589630859375 0.702158203125 -1.293287109375 0 -2.3457480468750003 -1.19241796875 -2.3457480468750003 -2.658509765625s1.0524609375 -2.658509765625 2.3457480468750003 -2.658509765625c0.42861328125000003 0.0015234374999999998 0.8469375 0.131431640625 1.20101953125 0.37297265625000003 0.299455078125 0.2022421875 0.2676796875 0.65281640625 -0.057199218749999996 0.81103125 -0.1507734375 0.073423828125 -0.3292734375 0.060837890625 -0.46824609375 -0.033029296874999996 -0.19845703125 -0.137677734375 -0.434044921875 -0.21183984375 -0.67557421875 -0.212677734375 -0.776443359375 0 -1.407451171875 0.77175 -1.407451171875 1.720212890625s0.6310078124999999 1.720212890625 1.407451171875 1.720212890625c0.286634765625 -0.003251953125 0.563162109375 -0.10640039062500001 0.7819101562499999 -0.29165625v-0.646640625h-0.156380859375c-0.3611484375 0 -0.5868691406250001 -0.3909609375 -0.406294921875 -0.70372265625 0.083806640625 -0.14516015624999998 0.238681640625 -0.23458007812499998 0.406294921875 -0.23458007812499998h0.625529296875c0.259107421875 0 0.469154296875 0.210046875 0.469154296875 0.469154296875ZM4.05957421875 10.00212890625v2.97127734375c0 1.444599609375 -1.56383203125 2.3474824218749997 -2.814890625 1.6251796875 -0.580623046875 -0.33522070312499996 -0.938302734375 -0.95473828125 -0.938302734375 -1.6251796875 0 -0.361154296875 0.3909609375 -0.586875 0.70372265625 -0.406294921875 0.14516015624999998 0.08380078125 0.23458007812499998 0.238681640625 0.23458007812499998 0.406294921875 0.0005683593750000001 0.7223027343749999 0.782841796875 1.173123046875 1.4080839843750002 0.8114765625 0.28972265625000004 -0.167578125 0.46824609375 -0.47678906249999997 0.46850976562499996 -0.8114765625V10.00212890625c0 -0.361154296875 0.39095507812499997 -0.5868691406250001 0.70372265625 -0.406294921875 0.145154296875 0.083806640625 0.23457421875 0.238681640625 0.23457421875 0.406294921875Zm10.49642578125 -5.335787109375L10.177277343750001 0.287619140625c-0.087896484375 -0.0880078125 -0.207146484375 -0.1375078125 -0.33153515625 -0.137619140625H2.339361328125c-0.604576171875 0 -1.094677734375 0.490107421875 -1.094677734375 1.094677734375v5.629787109375c0 0.361154296875 0.39095507812499997 0.586875 0.70372265625 0.40630078124999996 0.145154296875 -0.083806640625 0.23457421875 -0.2386875 0.23457421875 -0.40630078124999996V1.244677734375c0 -0.0863671875 0.070013671875 -0.156380859375 0.156380859375 -0.156380859375h7.037232421874999V4.99787109375c0 0.2591015625 0.210046875 0.4691484375 0.469154296875 0.4691484375h3.90957421875v1.4074453125c0 0.361154296875 0.39095507812499997 0.586875 0.70372265625 0.40630078124999996 0.145154296875 -0.083806640625 0.23457421875 -0.2386875 0.23457421875 -0.40630078124999996V4.99787109375c-0.000111328125 -0.1243828125 -0.049611328125 -0.24363281250000002 -0.137619140625 -0.331529296875Zm-4.241103515625 -0.137619140625V1.751361328125l2.777361328125 2.777361328125Z" stroke-width="1"></path></svg>