<svg xmlns="http://www.w3.org/2000/svg" viewBox="-0.5 -0.5 16 16" fill="currentColor" id="File-Png-Light--Streamline-Phosphor.svg" height="16" width="16"><desc>File Png Light Streamline Icon: https://streamlinehq.com</desc><path d="M2.026599609375 9.532974609375H0.7755351562499999c-0.259107421875 0 -0.4691484375 0.210046875 -0.4691484375 0.4691484375v4.37872265625c0.0003984375 0.361154296875 0.39161132812500005 0.586435546875 0.704173828125 0.405509765625 0.14473828125000002 -0.08377734375 0.233935546875 -0.23827148437499998 0.234123046875 -0.405509765625v-0.7819101562499999h0.7819101562499999c1.5649921875 -0.0000703125 2.54312109375 -1.6942617187500002 1.76056640625 -3.049546875 -0.36315234375 -0.62893359375 -1.034314453125 -1.01637890625 -1.76056640625 -1.0164140625Zm0 3.127658203125H1.24468359375v-2.189361328125h0.781916015625c0.84268359375 0.000041015625 1.3693710937499999 0.9122988281250001 0.9479941406249999 1.6420664062499999 -0.195544921875 0.338654296875 -0.556939453125 0.5472773437499999 -0.9479941406249999 0.5472949218750001Zm12.667013671874999 1.1627109375c-0.000064453125 0.12095507812499999 -0.046845703125 0.23720507812500002 -0.130576171875 0.32449218750000003 -0.410654296875 0.442869140625 -0.9856992187500001 0.696873046875 -1.58963671875 0.702158203125 -1.293287109375 0 -2.3457421875 -1.19241796875 -2.3457421875 -2.658509765625s1.0524609375 -2.658509765625 2.3457421875 -2.658509765625c0.428619140625 0.001529296875 0.846943359375 0.13143749999999998 1.201025390625 0.372978515625 0.299455078125 0.2022421875 0.267673828125 0.652810546875 -0.057199218749999996 0.811025390625 -0.150779296875 0.07342968750000001 -0.3292734375 0.060837890625 -0.46824609375 -0.0330234375 -0.19845703125 -0.137677734375 -0.434044921875 -0.211845703125 -0.675580078125 -0.21268359374999998 -0.7764375 0 -1.4074453125 0.77175 -1.4074453125 1.720212890625s0.6310078124999999 1.720212890625 1.4074453125 1.720212890625c0.28664062500000004 -0.003251953125 0.56316796875 -0.10639453125000001 0.781916015625 -0.291650390625v-0.6466464843749999h-0.156380859375c-0.361154296875 -0.000404296875 -0.586435546875 -0.39161132812500005 -0.405509765625 -0.704173828125 0.083783203125 -0.14473828125000002 0.23827148437499998 -0.233935546875 0.405509765625 -0.234123046875h0.625529296875c0.259107421875 0 0.4691484375 0.210046875 0.4691484375 0.4691484375Zm-5.31701953125 -3.8212207031250003v4.37872265625c-0.000140625 0.203859375 -0.131912109375 0.384298828125 -0.326056640625 0.44647265625 -0.046166015625 0.015205078125 -0.094482421875 0.02286328125 -0.143091796875 0.02267578125 -0.15140625 -0.00001171875 -0.293501953125 -0.07309570312500001 -0.38157421874999997 -0.196259765625l-2.276935546875 -3.18786328125v2.9149746093749997c-0.000404296875 0.361154296875 -0.39161132812500005 0.586435546875 -0.704173828125 0.405509765625 -0.14473828125000002 -0.08377734375 -0.233935546875 -0.23827148437499998 -0.234123046875 -0.405509765625v-4.37872265625c0.000046875 -0.3611484375 0.391037109375 -0.5868164062500001 0.703775390625 -0.406201171875 0.05792578125 0.03345703125 0.108029296875 0.078908203125 0.146947265625 0.1333125l2.276935546875 3.187869140625v-2.91498046875c0.000404296875 -0.3611484375 0.39161132812500005 -0.5864296875 0.7041796875 -0.40550390625 0.14473828125000002 0.08377734375 0.23392968749999998 0.23827148437499998 0.2341171875 0.40550390625ZM1.088296875 7.343613281250001c0.259095703125 -0.00001171875 0.4691484375 -0.21005273437500002 0.4691484375 -0.4691484375V1.244677734375c0 -0.0863671875 0.07001953125 -0.156380859375 0.15638671875000001 -0.156380859375h7.037232421874999V4.99787109375c0 0.2591015625 0.210046875 0.4691484375 0.4691484375 0.4691484375h3.90957421875v1.4074453125c0.000404296875 0.361154296875 0.39161132812500005 0.586435546875 0.704173828125 0.405509765625 0.14473828125000002 -0.08377734375 0.233935546875 -0.23827148437499998 0.234123046875 -0.405509765625V4.99787109375c-0.000111328125 -0.1243828125 -0.049611328125 -0.24363281250000002 -0.137619140625 -0.331529296875L9.5517421875 0.287619140625c-0.087896484375 -0.0880078125 -0.207146484375 -0.1375078125 -0.331529296875 -0.137619140625H1.7138320312500002c-0.604576171875 0 -1.0946835937500001 0.490107421875 -1.0946835937500001 1.094677734375v5.629787109375c0 0.259107421875 0.210046875 0.4691484375 0.4691484375 0.4691484375Zm8.601064453125002 -5.592251953125 2.777361328125 2.777361328125h-2.777361328125Z" stroke-width="1"></path></svg>